<svg width="1133" height="242" viewBox="0 0 1133 242" fill="none" xmlns="http://www.w3.org/2000/svg">
<mask id="path-1-inside-1_232_157" fill="white">
<path d="M654.403 48.5455H684.162L719.744 112.892H721.165L756.747 48.5455H786.506L733.594 139.739V194H707.315V139.739L654.403 48.5455ZM831.303 196.131C820.65 196.131 811.417 193.787 803.604 189.099C795.792 184.412 789.731 177.854 785.423 169.426C781.161 160.998 779.031 151.15 779.031 139.881C779.031 128.612 781.161 118.74 785.423 110.264C789.731 101.789 795.792 95.2074 803.604 90.5199C811.417 85.8324 820.65 83.4886 831.303 83.4886C841.957 83.4886 851.19 85.8324 859.002 90.5199C866.815 95.2074 872.852 101.789 877.113 110.264C881.422 118.74 883.576 128.612 883.576 139.881C883.576 151.15 881.422 160.998 877.113 169.426C872.852 177.854 866.815 184.412 859.002 189.099C851.19 193.787 841.957 196.131 831.303 196.131ZM831.445 175.534C837.222 175.534 842.051 173.948 845.934 170.776C849.817 167.556 852.705 163.247 854.599 157.849C856.54 152.452 857.511 146.438 857.511 139.81C857.511 133.134 856.54 127.097 854.599 121.699C852.705 116.254 849.817 111.921 845.934 108.702C842.051 105.482 837.222 103.872 831.445 103.872C825.527 103.872 820.603 105.482 816.673 108.702C812.79 111.921 809.878 116.254 807.937 121.699C806.043 127.097 805.096 133.134 805.096 139.81C805.096 146.438 806.043 152.452 807.937 157.849C809.878 163.247 812.79 167.556 816.673 170.776C820.603 173.948 825.527 175.534 831.445 175.534ZM952.841 237.182C943.608 237.182 935.677 235.927 929.048 233.418C922.42 230.955 917.093 227.641 913.068 223.474C909.044 219.308 906.25 214.691 904.688 209.625L927.841 204.014C928.883 206.145 930.398 208.252 932.386 210.335C934.375 212.466 937.05 214.218 940.412 215.591C943.821 217.011 948.106 217.722 953.267 217.722C960.559 217.722 966.596 215.946 971.378 212.395C976.16 208.891 978.551 203.115 978.551 195.065V174.398H977.273C975.947 177.049 974.006 179.772 971.449 182.565C968.939 185.359 965.601 187.703 961.435 189.597C957.315 191.491 952.131 192.438 945.881 192.438C937.5 192.438 929.901 190.473 923.082 186.543C916.312 182.565 910.914 176.647 906.889 168.787C902.912 160.88 900.923 150.984 900.923 139.099C900.923 127.12 902.912 117.011 906.889 108.773C910.914 100.487 916.335 94.2131 923.153 89.9517C929.972 85.643 937.571 83.4886 945.952 83.4886C952.344 83.4886 957.599 84.5777 961.719 86.7557C965.885 88.8864 969.2 91.4669 971.662 94.4972C974.124 97.4801 975.994 100.297 977.273 102.949H978.693V84.9091H1004.05V195.776C1004.05 205.103 1001.82 212.821 997.372 218.929C992.921 225.037 986.837 229.606 979.119 232.636C971.402 235.667 962.642 237.182 952.841 237.182ZM953.054 172.267C958.499 172.267 963.139 170.941 966.974 168.29C970.81 165.638 973.722 161.827 975.71 156.855C977.699 151.884 978.693 145.918 978.693 138.957C978.693 132.092 977.699 126.079 975.71 120.918C973.769 115.757 970.881 111.756 967.045 108.915C963.258 106.027 958.594 104.582 953.054 104.582C947.325 104.582 942.543 106.074 938.707 109.057C934.872 112.04 931.984 116.135 930.043 121.344C928.101 126.505 927.131 132.376 927.131 138.957C927.131 145.634 928.101 151.481 930.043 156.5C932.031 161.472 934.943 165.354 938.778 168.148C942.661 170.894 947.42 172.267 953.054 172.267ZM1061.79 196.202C1054.88 196.202 1048.65 194.971 1043.11 192.509C1037.62 189.999 1033.26 186.306 1030.04 181.429C1026.87 176.552 1025.28 170.539 1025.28 163.389C1025.28 157.234 1026.42 152.144 1028.69 148.119C1030.97 144.095 1034.07 140.875 1038 138.46C1041.93 136.045 1046.35 134.223 1051.28 132.991C1056.25 131.713 1061.39 130.79 1066.69 130.222C1073.08 129.559 1078.27 128.967 1082.24 128.446C1086.22 127.878 1089.11 127.026 1090.91 125.889C1092.76 124.705 1093.68 122.883 1093.68 120.42V119.994C1093.68 114.644 1092.09 110.501 1088.92 107.565C1085.75 104.63 1081.18 103.162 1075.21 103.162C1068.92 103.162 1063.92 104.535 1060.23 107.281C1056.58 110.027 1054.12 113.271 1052.84 117.011L1028.84 113.602C1030.73 106.973 1033.85 101.434 1038.21 96.983C1042.57 92.4848 1047.89 89.1231 1054.19 86.8977C1060.49 84.625 1067.45 83.4886 1075.07 83.4886C1080.33 83.4886 1085.56 84.1042 1090.77 85.3352C1095.98 86.5663 1100.73 88.6023 1105.04 91.4432C1109.35 94.2367 1112.81 98.0483 1115.41 102.878C1118.06 107.707 1119.39 113.744 1119.39 120.989V194H1094.67V179.014H1093.82C1092.26 182.045 1090.06 184.885 1087.22 187.537C1084.42 190.141 1080.89 192.248 1076.63 193.858C1072.42 195.42 1067.47 196.202 1061.79 196.202ZM1068.47 177.31C1073.63 177.31 1078.1 176.292 1081.89 174.256C1085.68 172.172 1088.59 169.426 1090.62 166.017C1092.71 162.608 1093.75 158.891 1093.75 154.866V142.011C1092.95 142.674 1091.57 143.29 1089.63 143.858C1087.74 144.426 1085.61 144.923 1083.24 145.349C1080.87 145.776 1078.53 146.154 1076.21 146.486C1073.89 146.817 1071.88 147.101 1070.17 147.338C1066.34 147.859 1062.9 148.711 1059.87 149.895C1056.84 151.079 1054.45 152.736 1052.7 154.866C1050.95 156.95 1050.07 159.649 1050.07 162.963C1050.07 167.698 1051.8 171.273 1055.26 173.688C1058.71 176.102 1063.12 177.31 1068.47 177.31Z"/>
</mask>
<path d="M654.403 48.5455H684.162L719.744 112.892H721.165L756.747 48.5455H786.506L733.594 139.739V194H707.315V139.739L654.403 48.5455ZM831.303 196.131C820.65 196.131 811.417 193.787 803.604 189.099C795.792 184.412 789.731 177.854 785.423 169.426C781.161 160.998 779.031 151.15 779.031 139.881C779.031 128.612 781.161 118.74 785.423 110.264C789.731 101.789 795.792 95.2074 803.604 90.5199C811.417 85.8324 820.65 83.4886 831.303 83.4886C841.957 83.4886 851.19 85.8324 859.002 90.5199C866.815 95.2074 872.852 101.789 877.113 110.264C881.422 118.74 883.576 128.612 883.576 139.881C883.576 151.15 881.422 160.998 877.113 169.426C872.852 177.854 866.815 184.412 859.002 189.099C851.19 193.787 841.957 196.131 831.303 196.131ZM831.445 175.534C837.222 175.534 842.051 173.948 845.934 170.776C849.817 167.556 852.705 163.247 854.599 157.849C856.54 152.452 857.511 146.438 857.511 139.81C857.511 133.134 856.54 127.097 854.599 121.699C852.705 116.254 849.817 111.921 845.934 108.702C842.051 105.482 837.222 103.872 831.445 103.872C825.527 103.872 820.603 105.482 816.673 108.702C812.79 111.921 809.878 116.254 807.937 121.699C806.043 127.097 805.096 133.134 805.096 139.81C805.096 146.438 806.043 152.452 807.937 157.849C809.878 163.247 812.79 167.556 816.673 170.776C820.603 173.948 825.527 175.534 831.445 175.534ZM952.841 237.182C943.608 237.182 935.677 235.927 929.048 233.418C922.42 230.955 917.093 227.641 913.068 223.474C909.044 219.308 906.25 214.691 904.688 209.625L927.841 204.014C928.883 206.145 930.398 208.252 932.386 210.335C934.375 212.466 937.05 214.218 940.412 215.591C943.821 217.011 948.106 217.722 953.267 217.722C960.559 217.722 966.596 215.946 971.378 212.395C976.16 208.891 978.551 203.115 978.551 195.065V174.398H977.273C975.947 177.049 974.006 179.772 971.449 182.565C968.939 185.359 965.601 187.703 961.435 189.597C957.315 191.491 952.131 192.438 945.881 192.438C937.5 192.438 929.901 190.473 923.082 186.543C916.312 182.565 910.914 176.647 906.889 168.787C902.912 160.88 900.923 150.984 900.923 139.099C900.923 127.12 902.912 117.011 906.889 108.773C910.914 100.487 916.335 94.2131 923.153 89.9517C929.972 85.643 937.571 83.4886 945.952 83.4886C952.344 83.4886 957.599 84.5777 961.719 86.7557C965.885 88.8864 969.2 91.4669 971.662 94.4972C974.124 97.4801 975.994 100.297 977.273 102.949H978.693V84.9091H1004.05V195.776C1004.05 205.103 1001.82 212.821 997.372 218.929C992.921 225.037 986.837 229.606 979.119 232.636C971.402 235.667 962.642 237.182 952.841 237.182ZM953.054 172.267C958.499 172.267 963.139 170.941 966.974 168.29C970.81 165.638 973.722 161.827 975.71 156.855C977.699 151.884 978.693 145.918 978.693 138.957C978.693 132.092 977.699 126.079 975.71 120.918C973.769 115.757 970.881 111.756 967.045 108.915C963.258 106.027 958.594 104.582 953.054 104.582C947.325 104.582 942.543 106.074 938.707 109.057C934.872 112.04 931.984 116.135 930.043 121.344C928.101 126.505 927.131 132.376 927.131 138.957C927.131 145.634 928.101 151.481 930.043 156.5C932.031 161.472 934.943 165.354 938.778 168.148C942.661 170.894 947.42 172.267 953.054 172.267ZM1061.79 196.202C1054.88 196.202 1048.65 194.971 1043.11 192.509C1037.62 189.999 1033.26 186.306 1030.04 181.429C1026.87 176.552 1025.28 170.539 1025.28 163.389C1025.28 157.234 1026.42 152.144 1028.69 148.119C1030.97 144.095 1034.07 140.875 1038 138.46C1041.93 136.045 1046.35 134.223 1051.28 132.991C1056.25 131.713 1061.39 130.79 1066.69 130.222C1073.08 129.559 1078.27 128.967 1082.24 128.446C1086.22 127.878 1089.11 127.026 1090.91 125.889C1092.76 124.705 1093.68 122.883 1093.68 120.42V119.994C1093.68 114.644 1092.09 110.501 1088.92 107.565C1085.75 104.63 1081.18 103.162 1075.21 103.162C1068.92 103.162 1063.92 104.535 1060.23 107.281C1056.58 110.027 1054.12 113.271 1052.84 117.011L1028.84 113.602C1030.73 106.973 1033.85 101.434 1038.21 96.983C1042.57 92.4848 1047.89 89.1231 1054.19 86.8977C1060.49 84.625 1067.45 83.4886 1075.07 83.4886C1080.33 83.4886 1085.56 84.1042 1090.77 85.3352C1095.98 86.5663 1100.73 88.6023 1105.04 91.4432C1109.35 94.2367 1112.81 98.0483 1115.41 102.878C1118.06 107.707 1119.39 113.744 1119.39 120.989V194H1094.67V179.014H1093.82C1092.26 182.045 1090.06 184.885 1087.22 187.537C1084.42 190.141 1080.89 192.248 1076.63 193.858C1072.42 195.42 1067.47 196.202 1061.79 196.202ZM1068.47 177.31C1073.63 177.31 1078.1 176.292 1081.89 174.256C1085.68 172.172 1088.59 169.426 1090.62 166.017C1092.71 162.608 1093.75 158.891 1093.75 154.866V142.011C1092.95 142.674 1091.57 143.29 1089.63 143.858C1087.74 144.426 1085.61 144.923 1083.24 145.349C1080.87 145.776 1078.53 146.154 1076.21 146.486C1073.89 146.817 1071.88 147.101 1070.17 147.338C1066.34 147.859 1062.9 148.711 1059.87 149.895C1056.84 151.079 1054.45 152.736 1052.7 154.866C1050.95 156.95 1050.07 159.649 1050.07 162.963C1050.07 167.698 1051.8 171.273 1055.26 173.688C1058.71 176.102 1063.12 177.31 1068.47 177.31Z" fill="white"/>
<path d="M654.403 48.5454V47.5454H652.667L653.538 49.0473L654.403 48.5454ZM684.162 48.5454L685.037 48.0615L684.752 47.5454H684.162V48.5454ZM719.744 112.892L718.869 113.376L719.155 113.892H719.744V112.892ZM721.165 112.892V113.892H721.755L722.04 113.376L721.165 112.892ZM756.747 48.5454V47.5454H756.157L755.872 48.0615L756.747 48.5454ZM786.506 48.5454L787.371 49.0473L788.242 47.5454H786.506V48.5454ZM733.594 139.739L732.729 139.237L732.594 139.47V139.739H733.594ZM733.594 194V195H734.594V194H733.594ZM707.315 194H706.315V195H707.315V194ZM707.315 139.739H708.315V139.47L708.18 139.237L707.315 139.739ZM654.403 49.5454H684.162V47.5454H654.403V49.5454ZM683.287 49.0294L718.869 113.376L720.619 112.408L685.037 48.0615L683.287 49.0294ZM719.744 113.892H721.165V111.892H719.744V113.892ZM722.04 113.376L757.622 49.0294L755.872 48.0615L720.29 112.408L722.04 113.376ZM756.747 49.5454H786.506V47.5454H756.747V49.5454ZM785.641 48.0436L732.729 139.237L734.459 140.24L787.371 49.0473L785.641 48.0436ZM732.594 139.739V194H734.594V139.739H732.594ZM733.594 193H707.315V195H733.594V193ZM708.315 194V139.739H706.315V194H708.315ZM708.18 139.237L655.268 48.0436L653.538 49.0473L706.45 140.24L708.18 139.237ZM803.604 189.099L803.09 189.957L803.604 189.099ZM785.423 169.426L784.53 169.877L784.532 169.881L785.423 169.426ZM785.423 110.264L784.531 109.811L784.529 109.815L785.423 110.264ZM803.604 90.5199L804.119 91.3774L803.604 90.5199ZM859.002 90.5199L858.488 91.3774L859.002 90.5199ZM877.113 110.264L876.219 110.713L876.222 110.717L877.113 110.264ZM877.113 169.426L876.223 168.971L876.221 168.975L877.113 169.426ZM859.002 189.099L858.488 188.242L859.002 189.099ZM845.934 170.776L846.567 171.55L846.572 171.545L845.934 170.776ZM854.599 157.849L853.658 157.511L853.655 157.518L854.599 157.849ZM854.599 121.699L853.654 122.027L853.658 122.037L854.599 121.699ZM845.934 108.702L846.572 107.932L845.934 108.702ZM816.673 108.702L816.039 107.928L816.034 107.932L816.673 108.702ZM807.937 121.699L806.995 121.363L806.993 121.368L807.937 121.699ZM807.937 157.849L806.993 158.181L806.996 158.188L807.937 157.849ZM816.673 170.776L816.034 171.545L816.044 171.554L816.673 170.776ZM831.303 195.131C820.8 195.131 811.751 192.821 804.119 188.242L803.09 189.957C811.082 194.752 820.5 197.131 831.303 197.131V195.131ZM804.119 188.242C796.473 183.655 790.54 177.239 786.313 168.971L784.532 169.881C788.923 178.469 795.11 185.169 803.09 189.957L804.119 188.242ZM786.315 168.975C782.137 160.711 780.031 151.023 780.031 139.881H778.031C778.031 151.276 780.186 161.285 784.53 169.877L786.315 168.975ZM780.031 139.881C780.031 128.739 782.137 119.026 786.316 110.713L784.529 109.815C780.186 118.454 778.031 128.485 778.031 139.881H780.031ZM786.314 110.717C790.541 102.402 796.475 95.9639 804.119 91.3774L803.09 89.6624C795.109 94.4509 788.921 101.176 784.531 109.811L786.314 110.717ZM804.119 91.3774C811.751 86.7979 820.8 84.4886 831.303 84.4886V82.4886C820.5 82.4886 811.082 84.8669 803.09 89.6624L804.119 91.3774ZM831.303 84.4886C841.807 84.4886 850.855 86.7979 858.488 91.3774L859.517 89.6624C851.524 84.8669 842.107 82.4886 831.303 82.4886V84.4886ZM858.488 91.3774C866.131 95.9633 872.04 102.4 876.219 110.713L878.006 109.815C873.664 101.178 867.498 94.4515 859.517 89.6624L858.488 91.3774ZM876.222 110.717C880.447 119.029 882.576 128.74 882.576 139.881H884.576C884.576 128.483 882.397 118.451 878.004 109.811L876.222 110.717ZM882.576 139.881C882.576 151.021 880.447 160.708 876.223 168.971L878.003 169.881C882.397 161.288 884.576 151.278 884.576 139.881H882.576ZM876.221 168.975C872.041 177.241 866.132 183.655 858.488 188.242L859.517 189.957C867.497 185.169 873.662 178.467 878.005 169.877L876.221 168.975ZM858.488 188.242C850.855 192.821 841.807 195.131 831.303 195.131V197.131C842.107 197.131 851.524 194.752 859.517 189.957L858.488 188.242ZM831.445 176.534C837.416 176.534 842.479 174.89 846.567 171.55L845.301 170.001C841.624 173.006 837.028 174.534 831.445 174.534V176.534ZM846.572 171.545C850.613 168.195 853.597 163.726 855.542 158.181L853.655 157.518C851.813 162.768 849.021 166.917 845.296 170.006L846.572 171.545ZM855.54 158.188C857.526 152.666 858.511 146.536 858.511 139.81H856.511C856.511 146.341 855.554 152.237 853.658 157.511L855.54 158.188ZM858.511 139.81C858.511 133.037 857.526 126.883 855.54 121.36L853.658 122.037C855.554 127.31 856.511 133.23 856.511 139.81H858.511ZM855.543 121.37C853.598 115.778 850.614 111.284 846.572 107.932L845.296 109.471C849.019 112.559 851.811 116.729 853.654 122.027L855.543 121.37ZM846.572 107.932C842.485 104.542 837.419 102.872 831.445 102.872V104.872C837.024 104.872 841.618 106.422 845.296 109.471L846.572 107.932ZM831.445 102.872C825.336 102.872 820.176 104.539 816.039 107.928L817.306 109.475C821.029 106.425 825.718 104.872 831.445 104.872V102.872ZM816.034 107.932C811.994 111.282 808.988 115.774 806.995 121.363L808.879 122.035C810.769 116.734 813.586 112.56 817.311 109.471L816.034 107.932ZM806.993 121.368C805.056 126.888 804.096 133.039 804.096 139.81H806.096C806.096 133.228 807.029 127.305 808.88 122.03L806.993 121.368ZM804.096 139.81C804.096 146.534 805.057 152.661 806.993 158.181L808.88 157.518C807.029 152.242 806.096 146.343 806.096 139.81H804.096ZM806.996 158.188C808.989 163.73 811.996 168.197 816.034 171.545L817.311 170.006C813.584 166.915 810.767 162.764 808.878 157.511L806.996 158.188ZM816.044 171.554C820.182 174.893 825.339 176.534 831.445 176.534V174.534C825.714 174.534 821.023 173.002 817.301 169.997L816.044 171.554ZM929.048 233.418L929.402 232.482L929.396 232.48L929.048 233.418ZM913.068 223.474L913.787 222.78L913.068 223.474ZM904.688 209.625L904.452 208.653L903.419 208.904L903.732 209.92L904.688 209.625ZM927.841 204.014L928.739 203.575L928.386 202.853L927.605 203.042L927.841 204.014ZM932.386 210.335L933.117 209.653L933.11 209.645L932.386 210.335ZM940.412 215.591L940.797 214.668L940.79 214.665L940.412 215.591ZM971.378 212.395L970.787 211.588L970.782 211.592L971.378 212.395ZM978.551 174.398H979.551V173.398H978.551V174.398ZM977.273 174.398V173.398H976.655L976.378 173.951L977.273 174.398ZM971.449 182.565L970.711 181.89L970.705 181.897L971.449 182.565ZM961.435 189.597L961.021 188.686L961.017 188.688L961.435 189.597ZM923.082 186.543L922.576 187.405L922.583 187.409L923.082 186.543ZM906.889 168.787L905.996 169.236L905.999 169.243L906.889 168.787ZM906.889 108.773L905.99 108.336L905.989 108.338L906.889 108.773ZM923.153 89.9517L923.683 90.7997L923.688 90.7971L923.153 89.9517ZM961.719 86.7557L961.251 87.6398L961.263 87.646L961.719 86.7557ZM971.662 94.4972L970.886 95.1278L970.891 95.1337L971.662 94.4972ZM977.273 102.949L976.372 103.383L976.645 103.949H977.273V102.949ZM978.693 102.949V103.949H979.693V102.949H978.693ZM978.693 84.9091V83.9091H977.693V84.9091H978.693ZM1004.05 84.9091H1005.05V83.9091H1004.05V84.9091ZM997.372 218.929L998.18 219.518L997.372 218.929ZM979.119 232.636L979.485 233.567L979.119 232.636ZM966.974 168.29L966.406 167.467L966.974 168.29ZM975.71 120.918L974.774 121.27L974.777 121.277L975.71 120.918ZM967.045 108.915L966.439 109.71L966.45 109.718L967.045 108.915ZM938.707 109.057L938.093 108.267L938.707 109.057ZM930.043 121.344L930.979 121.696L930.98 121.693L930.043 121.344ZM930.043 156.5L929.11 156.861L929.114 156.871L930.043 156.5ZM938.778 168.148L938.19 168.956L938.201 168.964L938.778 168.148ZM952.841 236.182C943.694 236.182 935.89 234.938 929.402 232.482L928.694 234.353C935.465 236.916 943.522 238.182 952.841 238.182V236.182ZM929.396 232.48C922.878 230.059 917.688 226.818 913.787 222.78L912.349 224.169C916.498 228.465 921.961 231.852 928.7 234.355L929.396 232.48ZM913.787 222.78C909.862 218.715 907.155 214.233 905.643 209.33L903.732 209.92C905.345 215.15 908.225 219.9 912.349 224.169L913.787 222.78ZM904.923 210.597L928.076 204.986L927.605 203.042L904.452 208.653L904.923 210.597ZM926.943 204.453C928.038 206.694 929.618 208.883 931.663 211.026L933.11 209.645C931.177 207.62 929.727 205.596 928.739 203.575L926.943 204.453ZM931.655 211.018C933.764 213.277 936.57 215.102 940.034 216.517L940.79 214.665C937.53 213.334 934.986 211.655 933.117 209.653L931.655 211.018ZM940.027 216.514C943.596 218.001 948.023 218.722 953.267 218.722V216.722C948.189 216.722 944.046 216.022 940.797 214.668L940.027 216.514ZM953.267 218.722C960.724 218.722 966.984 216.903 971.974 213.198L970.782 211.592C966.208 214.989 960.393 216.722 953.267 216.722V218.722ZM971.969 213.202C977.094 209.447 979.551 203.31 979.551 195.065H977.551C977.551 202.919 975.226 208.335 970.787 211.588L971.969 213.202ZM979.551 195.065V174.398H977.551V195.065H979.551ZM978.551 173.398H977.273V175.398H978.551V173.398ZM976.378 173.951C975.104 176.5 973.222 179.147 970.711 181.89L972.187 183.24C974.79 180.397 976.79 177.599 978.167 174.845L976.378 173.951ZM970.705 181.897C968.305 184.568 965.089 186.837 961.021 188.686L961.848 190.507C966.114 188.568 969.573 186.15 972.193 183.234L970.705 181.897ZM961.017 188.688C957.068 190.503 952.038 191.438 945.881 191.438V193.438C952.224 193.438 957.562 192.478 961.852 190.505L961.017 188.688ZM945.881 191.438C937.663 191.438 930.238 189.513 923.582 185.676L922.583 187.409C929.563 191.432 937.337 193.438 945.881 193.438V191.438ZM923.589 185.68C917.002 181.811 911.728 176.044 907.779 168.331L905.999 169.243C910.099 177.25 915.621 183.32 922.576 187.405L923.589 185.68ZM907.783 168.338C903.895 160.609 901.923 150.879 901.923 139.099H899.923C899.923 151.089 901.929 161.15 905.996 169.236L907.783 168.338ZM901.923 139.099C901.923 127.226 903.895 117.275 907.79 109.207L905.989 108.338C901.929 116.747 899.923 127.014 899.923 139.099H901.923ZM907.789 109.21C911.743 101.067 917.047 94.9476 923.683 90.7997L922.623 89.1037C915.624 93.4785 910.084 99.906 905.99 108.336L907.789 109.21ZM923.688 90.7971C930.34 86.5934 937.752 84.4886 945.952 84.4886V82.4886C937.39 82.4886 929.604 84.6925 922.619 89.1064L923.688 90.7971ZM945.952 84.4886C952.238 84.4886 957.32 85.5608 961.251 87.6397L962.186 85.8716C957.879 83.5945 952.449 82.4886 945.952 82.4886V84.4886ZM961.263 87.646C965.33 89.7257 968.527 92.2246 970.886 95.1277L972.438 93.8666C969.873 90.7091 966.44 88.047 962.174 85.8653L961.263 87.646ZM970.891 95.1337C973.317 98.0729 975.137 100.823 976.372 103.383L978.173 102.515C976.851 99.7722 974.931 96.8874 972.433 93.8606L970.891 95.1337ZM977.273 103.949H978.693V101.949H977.273V103.949ZM979.693 102.949V84.9091H977.693V102.949H979.693ZM978.693 85.9091H1004.05V83.9091H978.693V85.9091ZM1003.05 84.9091V195.776H1005.05V84.9091H1003.05ZM1003.05 195.776C1003.05 204.942 1000.86 212.44 996.564 218.34L998.18 219.518C1002.78 213.202 1005.05 205.265 1005.05 195.776H1003.05ZM996.564 218.34C992.236 224.279 986.312 228.738 978.754 231.706L979.485 233.567C987.362 230.474 993.607 225.794 998.18 219.518L996.564 218.34ZM978.754 231.706C971.172 234.683 962.539 236.182 952.841 236.182V238.182C962.745 238.182 971.631 236.651 979.485 233.567L978.754 231.706ZM953.054 173.267C958.667 173.267 963.514 171.898 967.543 169.112L966.406 167.467C962.764 169.985 958.331 171.267 953.054 171.267V173.267ZM967.543 169.112C971.563 166.333 974.588 162.353 976.639 157.227L974.782 156.484C972.855 161.301 970.056 164.943 966.406 167.467L967.543 169.112ZM976.639 157.227C978.686 152.107 979.693 146.009 979.693 138.957H977.693C977.693 145.827 976.711 151.66 974.782 156.484L976.639 157.227ZM979.693 138.957C979.693 131.998 978.685 125.858 976.643 120.558L974.777 121.277C976.712 126.299 977.693 132.186 977.693 138.957H979.693ZM976.646 120.566C974.648 115.253 971.653 111.084 967.641 108.111L966.45 109.718C970.108 112.428 972.89 116.26 974.774 121.27L976.646 120.566ZM967.652 108.12C963.662 105.078 958.776 103.582 953.054 103.582V105.582C958.412 105.582 962.853 106.975 966.439 109.71L967.652 108.12ZM953.054 103.582C947.144 103.582 942.134 105.125 938.093 108.267L939.321 109.846C942.951 107.023 947.506 105.582 953.054 105.582V103.582ZM938.093 108.267C934.092 111.38 931.102 115.638 929.106 120.994L930.98 121.693C932.866 116.633 935.653 112.7 939.321 109.846L938.093 108.267ZM929.107 120.992C927.116 126.285 926.131 132.278 926.131 138.957H928.131C928.131 132.473 929.087 126.725 930.979 121.696L929.107 120.992ZM926.131 138.957C926.131 145.728 927.115 151.703 929.11 156.861L930.975 156.139C929.088 151.259 928.131 145.539 928.131 138.957H926.131ZM929.114 156.871C931.163 161.995 934.183 166.038 938.19 168.956L939.367 167.339C935.703 164.67 932.899 160.949 930.971 156.129L929.114 156.871ZM938.201 168.964C942.282 171.851 947.252 173.267 953.054 173.267V171.267C947.587 171.267 943.04 169.937 939.356 167.331L938.201 168.964ZM1043.11 192.509L1042.7 193.418L1042.7 193.422L1043.11 192.509ZM1030.04 181.429L1029.2 181.974L1029.21 181.98L1030.04 181.429ZM1028.69 148.119L1027.82 147.628L1028.69 148.119ZM1038 138.46L1037.47 137.608L1038 138.46ZM1051.28 132.991L1051.52 133.962L1051.53 133.96L1051.28 132.991ZM1066.69 130.222L1066.59 129.227L1066.58 129.227L1066.69 130.222ZM1082.24 128.446L1082.37 129.438L1082.39 129.436L1082.24 128.446ZM1090.91 125.889L1091.44 126.735L1091.45 126.731L1090.91 125.889ZM1088.92 107.565L1089.6 106.831L1088.92 107.565ZM1060.23 107.281L1059.63 106.479L1059.63 106.482L1060.23 107.281ZM1052.84 117.011L1052.7 118.001L1053.52 118.118L1053.79 117.335L1052.84 117.011ZM1028.84 113.602L1027.87 113.328L1027.56 114.431L1028.69 114.592L1028.84 113.602ZM1038.21 96.9829L1038.92 97.6824L1038.93 97.6786L1038.21 96.9829ZM1054.19 86.8977L1054.52 87.8406L1054.53 87.8383L1054.19 86.8977ZM1105.04 91.4432L1104.49 92.2781L1104.5 92.2822L1105.04 91.4432ZM1115.41 102.878L1114.53 103.352L1114.54 103.359L1115.41 102.878ZM1119.39 194V195H1120.39V194H1119.39ZM1094.67 194H1093.67V195H1094.67V194ZM1094.67 179.014H1095.67V178.014H1094.67V179.014ZM1093.82 179.014V178.014H1093.21L1092.93 178.556L1093.82 179.014ZM1087.22 187.537L1087.9 188.268L1087.9 188.268L1087.22 187.537ZM1076.63 193.858L1076.98 194.796L1076.99 194.793L1076.63 193.858ZM1081.89 174.256L1082.36 175.137L1082.37 175.132L1081.89 174.256ZM1090.62 166.017L1089.77 165.496L1089.77 165.504L1090.62 166.017ZM1093.75 142.011H1094.75V139.892L1093.11 141.239L1093.75 142.011ZM1089.63 143.858L1089.35 142.898L1089.34 142.9L1089.63 143.858ZM1083.24 145.349L1083.42 146.334L1083.24 145.349ZM1070.17 147.338L1070.31 148.329L1070.31 148.329L1070.17 147.338ZM1059.87 149.895L1059.51 148.963L1059.87 149.895ZM1052.7 154.866L1053.46 155.51L1053.47 155.502L1052.7 154.866ZM1055.26 173.688L1054.68 174.507L1055.26 173.688ZM1061.79 195.202C1055 195.202 1048.91 193.993 1043.52 191.595L1042.7 193.422C1048.39 195.949 1054.76 197.202 1061.79 197.202V195.202ZM1043.53 191.599C1038.2 189.165 1033.99 185.593 1030.88 180.878L1029.21 181.98C1032.53 187.019 1037.04 190.833 1042.7 193.418L1043.53 191.599ZM1030.88 180.884C1027.84 176.203 1026.28 170.39 1026.28 163.389H1024.28C1024.28 170.688 1025.9 176.901 1029.2 181.974L1030.88 180.884ZM1026.28 163.389C1026.28 157.351 1027.4 152.444 1029.56 148.611L1027.82 147.628C1025.44 151.844 1024.28 157.117 1024.28 163.389H1026.28ZM1029.56 148.611C1031.75 144.734 1034.74 141.638 1038.52 139.312L1037.47 137.608C1033.4 140.112 1030.18 143.456 1027.82 147.628L1029.56 148.611ZM1038.52 139.312C1042.36 136.956 1046.69 135.17 1051.52 133.962L1051.04 132.021C1046.02 133.275 1041.5 135.135 1037.47 137.608L1038.52 139.312ZM1051.53 133.96C1056.45 132.694 1061.54 131.779 1066.8 131.216L1066.58 129.227C1061.23 129.8 1056.05 130.732 1051.03 132.023L1051.53 133.96ZM1066.79 131.216C1073.19 130.553 1078.38 129.96 1082.37 129.438L1082.11 127.454C1078.15 127.974 1072.97 128.564 1066.59 129.227L1066.79 131.216ZM1082.39 129.436C1086.4 128.862 1089.46 127.987 1091.44 126.735L1090.38 125.044C1088.76 126.064 1086.04 126.893 1082.1 127.456L1082.39 129.436ZM1091.45 126.731C1093.62 125.338 1094.68 123.174 1094.68 120.42H1092.68C1092.68 122.591 1091.89 124.073 1090.37 125.047L1091.45 126.731ZM1094.68 120.42V119.994H1092.68V120.42H1094.68ZM1094.68 119.994C1094.68 114.436 1093.02 110 1089.6 106.831L1088.24 108.299C1091.16 111.002 1092.68 114.851 1092.68 119.994H1094.68ZM1089.6 106.831C1086.18 103.669 1081.33 102.162 1075.21 102.162V104.162C1081.02 104.162 1085.31 105.591 1088.24 108.299L1089.6 106.831ZM1075.21 102.162C1068.78 102.162 1063.55 103.565 1059.63 106.479L1060.82 108.084C1064.29 105.506 1069.05 104.162 1075.21 104.162V102.162ZM1059.63 106.482C1055.85 109.33 1053.25 112.73 1051.89 116.688L1053.79 117.335C1054.99 113.812 1057.32 110.725 1060.83 108.08L1059.63 106.482ZM1052.98 116.021L1028.98 112.612L1028.69 114.592L1052.7 118.001L1052.98 116.021ZM1029.8 113.877C1031.65 107.391 1034.7 102.002 1038.92 97.6824L1037.5 96.2835C1033.01 100.865 1029.81 106.556 1027.87 113.328L1029.8 113.877ZM1038.93 97.6786C1043.17 93.2989 1048.36 90.018 1054.52 87.8406L1053.86 85.9549C1047.42 88.2282 1041.96 91.6708 1037.49 96.2873L1038.93 97.6786ZM1054.53 87.8383C1060.7 85.6099 1067.55 84.4886 1075.07 84.4886V82.4886C1067.35 82.4886 1060.27 83.6401 1053.85 85.9571L1054.53 87.8383ZM1075.07 84.4886C1080.25 84.4886 1085.4 85.0948 1090.54 86.3084L1091 84.362C1085.71 83.1135 1080.41 82.4886 1075.07 82.4886V84.4886ZM1090.54 86.3084C1095.64 87.5135 1100.28 89.504 1104.49 92.278L1105.59 90.6083C1101.18 87.7005 1096.32 85.6191 1091 84.362L1090.54 86.3084ZM1104.5 92.2822C1108.66 94.9782 1112 98.6602 1114.53 103.352L1116.29 102.403C1113.61 97.4363 1110.05 93.4952 1105.59 90.6041L1104.5 92.2822ZM1114.54 103.359C1117.08 108.002 1118.39 113.861 1118.39 120.989H1120.39C1120.39 113.627 1119.04 107.413 1116.29 102.397L1114.54 103.359ZM1118.39 120.989V194H1120.39V120.989H1118.39ZM1119.39 193H1094.67V195H1119.39V193ZM1095.67 194V179.014H1093.67V194H1095.67ZM1094.67 178.014H1093.82V180.014H1094.67V178.014ZM1092.93 178.556C1091.43 181.471 1089.3 184.222 1086.53 186.806L1087.9 188.268C1090.81 185.549 1093.09 182.618 1094.71 179.472L1092.93 178.556ZM1086.53 186.805C1083.85 189.306 1080.44 191.35 1076.28 192.922L1076.99 194.793C1081.35 193.146 1084.99 190.977 1087.9 188.268L1086.53 186.805ZM1076.29 192.92C1072.21 194.432 1067.38 195.202 1061.79 195.202V197.202C1067.56 197.202 1072.63 196.409 1076.98 194.796L1076.29 192.92ZM1068.47 178.31C1073.76 178.31 1078.4 177.265 1082.36 175.137L1081.42 173.375C1077.8 175.318 1073.49 176.31 1068.47 176.31V178.31ZM1082.37 175.132C1086.3 172.971 1089.35 170.105 1091.48 166.53L1089.77 165.504C1087.83 168.748 1085.05 171.374 1081.41 173.379L1082.37 175.132ZM1091.48 166.538C1093.66 162.971 1094.75 159.074 1094.75 154.866H1092.75C1092.75 158.709 1091.76 162.245 1089.77 165.496L1091.48 166.538ZM1094.75 154.866V142.011H1092.75V154.866H1094.75ZM1093.11 141.239C1092.47 141.769 1091.26 142.339 1089.35 142.898L1089.91 144.818C1091.88 144.241 1093.42 143.58 1094.39 142.783L1093.11 141.239ZM1089.34 142.9C1087.49 143.455 1085.4 143.944 1083.06 144.365L1083.42 146.334C1085.81 145.902 1087.98 145.397 1089.92 144.816L1089.34 142.9ZM1083.06 144.365C1080.71 144.789 1078.37 145.166 1076.07 145.496L1076.35 147.476C1078.68 147.143 1081.04 146.762 1083.42 146.334L1083.06 144.365ZM1076.07 145.496C1073.75 145.827 1071.74 146.111 1070.03 146.348L1070.31 148.329C1072.01 148.092 1074.03 147.807 1076.35 147.476L1076.07 145.496ZM1070.04 146.347C1066.14 146.877 1062.62 147.746 1059.51 148.963L1060.24 150.826C1063.18 149.676 1066.53 148.841 1070.31 148.329L1070.04 146.347ZM1059.51 148.963C1056.35 150.198 1053.8 151.947 1051.93 154.231L1053.47 155.502C1055.1 153.525 1057.34 151.959 1060.24 150.826L1059.51 148.963ZM1051.93 154.223C1050 156.523 1049.07 159.466 1049.07 162.963H1051.07C1051.07 159.831 1051.89 157.376 1053.46 155.51L1051.93 154.223ZM1049.07 162.963C1049.07 167.978 1050.92 171.88 1054.68 174.507L1055.83 172.868C1052.68 170.665 1051.07 167.418 1051.07 162.963H1049.07ZM1054.68 174.507C1058.35 177.067 1062.97 178.31 1068.47 178.31V176.31C1063.27 176.31 1059.08 175.137 1055.83 172.868L1054.68 174.507Z" fill="black" mask="url(#path-1-inside-1_232_157)"/>
<path d="M14.3466 194V48.5455H68.892C80.0663 48.5455 89.4413 50.6288 97.017 54.7955C104.64 58.9621 110.393 64.6913 114.276 71.983C118.205 79.2273 120.17 87.4659 120.17 96.6989C120.17 106.027 118.205 114.312 114.276 121.557C110.346 128.801 104.545 134.507 96.875 138.673C89.2045 142.793 79.7585 144.852 68.5369 144.852H32.3864V123.19H64.9858C71.5199 123.19 76.8703 122.054 81.0369 119.781C85.2036 117.509 88.2813 114.384 90.2699 110.406C92.3059 106.429 93.3239 101.86 93.3239 96.6989C93.3239 91.5379 92.3059 86.9924 90.2699 83.0625C88.2813 79.1326 85.1799 76.0786 80.9659 73.9006C76.7992 71.6752 71.4252 70.5625 64.8438 70.5625H40.696V194H14.3466ZM187.944 196.131C177.29 196.131 168.058 193.787 160.245 189.099C152.433 184.412 146.372 177.854 142.063 169.426C137.802 160.998 135.671 151.15 135.671 139.881C135.671 128.612 137.802 118.74 142.063 110.264C146.372 101.789 152.433 95.2074 160.245 90.5199C168.058 85.8324 177.29 83.4886 187.944 83.4886C198.597 83.4886 207.83 85.8324 215.643 90.5199C223.455 95.2074 229.492 101.789 233.754 110.264C238.062 118.74 240.217 128.612 240.217 139.881C240.217 151.15 238.062 160.998 233.754 169.426C229.492 177.854 223.455 184.412 215.643 189.099C207.83 193.787 198.597 196.131 187.944 196.131ZM188.086 175.534C193.862 175.534 198.692 173.948 202.575 170.776C206.457 167.556 209.345 163.247 211.239 157.849C213.181 152.452 214.151 146.438 214.151 139.81C214.151 133.134 213.181 127.097 211.239 121.699C209.345 116.254 206.457 111.921 202.575 108.702C198.692 105.482 193.862 103.872 188.086 103.872C182.167 103.872 177.243 105.482 173.313 108.702C169.431 111.921 166.519 116.254 164.577 121.699C162.683 127.097 161.737 133.134 161.737 139.81C161.737 146.438 162.683 152.452 164.577 157.849C166.519 163.247 169.431 167.556 173.313 170.776C177.243 173.948 182.167 175.534 188.086 175.534ZM309.624 196.131C298.733 196.131 289.382 193.74 281.57 188.957C273.804 184.175 267.815 177.57 263.601 169.142C259.434 160.667 257.351 150.913 257.351 139.881C257.351 128.801 259.482 119.024 263.743 110.548C268.004 102.026 274.018 95.3968 281.783 90.6619C289.595 85.8797 298.828 83.4886 309.482 83.4886C318.336 83.4886 326.172 85.1222 332.99 88.3892C339.856 91.6089 345.324 96.178 349.396 102.097C353.468 107.968 355.788 114.833 356.357 122.693H331.783C330.788 117.437 328.421 113.058 324.68 109.554C320.987 106.003 316.039 104.227 309.837 104.227C304.581 104.227 299.964 105.648 295.987 108.489C292.01 111.282 288.909 115.307 286.683 120.562C284.505 125.818 283.416 132.116 283.416 139.455C283.416 146.888 284.505 153.28 286.683 158.631C288.861 163.934 291.915 168.029 295.845 170.918C299.822 173.759 304.486 175.179 309.837 175.179C313.625 175.179 317.01 174.469 319.993 173.048C323.023 171.58 325.556 169.473 327.592 166.727C329.628 163.981 331.025 160.643 331.783 156.713H356.357C355.741 164.431 353.468 171.273 349.538 177.239C345.608 183.157 340.258 187.797 333.487 191.159C326.716 194.473 318.762 196.131 309.624 196.131ZM400.906 159.767L400.835 128.73H404.954L444.158 84.9091H474.201L425.977 138.602H420.65L400.906 159.767ZM377.468 194V48.5455H403.178V194H377.468ZM445.934 194L410.423 144.355L427.752 126.244L476.687 194H445.934ZM535.138 196.131C524.201 196.131 514.755 193.858 506.8 189.312C498.893 184.72 492.809 178.233 488.548 169.852C484.286 161.424 482.156 151.505 482.156 140.094C482.156 128.872 484.286 119.024 488.548 110.548C492.856 102.026 498.87 95.3968 506.587 90.6619C514.305 85.8797 523.372 83.4886 533.789 83.4886C540.513 83.4886 546.857 84.5777 552.823 86.7557C558.836 88.8864 564.139 92.2008 568.732 96.6989C573.372 101.197 577.018 106.926 579.67 113.886C582.321 120.799 583.647 129.038 583.647 138.602V146.486H494.229V129.156H559.002C558.955 124.232 557.889 119.852 555.806 116.017C553.723 112.134 550.811 109.08 547.07 106.855C543.377 104.63 539.068 103.517 534.144 103.517C528.888 103.517 524.272 104.795 520.295 107.352C516.317 109.862 513.216 113.176 510.991 117.295C508.813 121.367 507.7 125.842 507.653 130.719V145.847C507.653 152.191 508.813 157.636 511.133 162.182C513.453 166.68 516.696 170.136 520.863 172.551C525.03 174.919 529.906 176.102 535.494 176.102C539.234 176.102 542.62 175.581 545.65 174.54C548.68 173.451 551.308 171.865 553.533 169.781C555.759 167.698 557.44 165.117 558.576 162.04L582.582 164.739C581.067 171.083 578.178 176.623 573.917 181.358C569.703 186.045 564.305 189.691 557.724 192.295C551.142 194.852 543.614 196.131 535.138 196.131ZM659.872 84.9091V104.795H597.159V84.9091H659.872ZM612.642 58.7727H638.352V161.188C638.352 164.644 638.873 167.295 639.915 169.142C641.004 170.941 642.424 172.172 644.176 172.835C645.928 173.498 647.869 173.83 650 173.83C651.61 173.83 653.078 173.711 654.403 173.474C655.777 173.238 656.818 173.025 657.528 172.835L661.861 192.935C660.488 193.408 658.523 193.929 655.966 194.497C653.456 195.065 650.379 195.397 646.733 195.491C640.294 195.681 634.493 194.71 629.332 192.58C624.171 190.402 620.076 187.04 617.045 182.494C614.063 177.949 612.595 172.267 612.642 165.449V58.7727Z" fill="#638D4C"/>
</svg>
